<?xml version="1.0" standalone="no"?>
<!DOCTYPE svg PUBLIC "-//W3C//DTD SVG 20010904//EN"
 "http://www.w3.org/TR/2001/REC-SVG-20010904/DTD/svg10.dtd">
<svg version="1.0" xmlns="http://www.w3.org/2000/svg"
 width="256.000000pt" height="256.000000pt" viewBox="0 0 256.000000 256.000000"
 preserveAspectRatio="xMidYMid meet">

<g transform="translate(0.000000,256.000000) scale(0.100000,-0.100000)"
fill="#000000" stroke="none">
<path d="M2033 1429 c-44 -13 -90 -62 -103 -110 -7 -26 -10 -185 -8 -462 3
-414 3 -423 25 -457 43 -70 63 -75 293 -75 230 0 250 5 293 75 22 35 22 40 22
480 0 427 -1 446 -20 478 -11 18 -36 43 -55 55 -32 20 -49 22 -225 24 -104 1
-204 -2 -222 -8z"/>
</g>
</svg>
