<?xml version="1.0" standalone="no"?>
<!DOCTYPE svg PUBLIC "-//W3C//DTD SVG 20010904//EN"
 "http://www.w3.org/TR/2001/REC-SVG-20010904/DTD/svg10.dtd">
<svg version="1.0" xmlns="http://www.w3.org/2000/svg"
 width="546.000000pt" height="98.000000pt" viewBox="0 0 546.000000 98.000000"
 preserveAspectRatio="xMidYMid meet">

<g transform="translate(0.000000,98.000000) scale(0.100000,-0.100000)"
fill="#000000" stroke="none">
<path d="M115 616 c-31 -31 -38 -74 -33 -201 3 -99 5 -107 31 -133 l27 -27
198 0 197 0 3 28 3 27 -188 0 c-134 0 -193 4 -201 12 -8 8 -12 51 -12 130 0
106 2 118 19 128 12 6 95 10 200 10 l181 0 0 25 0 25 -200 0 c-198 0 -201 0
-225 -24z"/>
<path d="M934 518 l116 -123 0 -72 c0 -71 1 -73 25 -73 24 0 25 2 25 71 l0 72
116 123 116 124 -40 0 c-37 0 -44 -6 -121 -90 -46 -50 -88 -90 -95 -90 -6 0
-49 41 -94 90 -78 85 -86 90 -123 90 l-41 0 116 -122z"/>
<path d="M1627 629 c-43 -25 -60 -106 -33 -158 23 -44 53 -51 224 -51 170 0
182 -3 182 -51 0 -55 -14 -59 -216 -59 l-184 0 0 -30 0 -30 180 0 c242 0 270
12 270 115 0 99 -20 109 -235 115 l-170 5 -3 40 c-5 62 4 65 215 65 l183 0 0
25 0 25 -197 0 c-116 0 -205 -5 -216 -11z"/>
<path d="M2342 448 c3 -192 3 -193 26 -196 21 -3 22 -1 22 82 l0 86 180 0 179
0 3 -82 c3 -81 4 -83 28 -83 l25 0 3 193 2 192 -30 0 -30 0 0 -80 0 -80 -180
0 -180 0 0 80 c0 79 0 80 -25 80 l-25 0 2 -192z"/>
<path d="M3092 448 l3 -193 25 0 25 0 3 193 2 192 -30 0 -30 0 2 -192z"/>
<path d="M3466 615 c-26 -24 -26 -25 -26 -165 0 -135 1 -142 24 -165 32 -32
64 -36 256 -33 l165 3 3 28 3 27 -188 0 c-134 0 -193 4 -201 12 -7 7 -12 31
-12 55 l0 43 200 0 200 0 0 30 0 30 -200 0 -200 0 0 45 c0 34 5 47 19 55 12 6
95 10 200 10 l181 0 0 25 0 25 -199 0 c-196 0 -198 0 -225 -25z"/>
<path d="M4180 475 c0 -162 1 -167 24 -190 32 -32 65 -36 246 -33 l155 3 3 28
3 27 -175 0 c-145 0 -177 3 -190 16 -13 13 -16 42 -16 165 l0 149 -25 0 -25 0
0 -165z"/>
<path d="M4920 615 l0 -25 181 0 c105 0 188 -4 200 -10 17 -10 19 -22 19 -134
0 -104 -3 -125 -16 -130 -9 -3 -99 -6 -200 -6 l-185 0 3 -27 3 -28 170 -3
c197 -3 229 1 261 33 23 23 24 30 24 155 0 132 -6 162 -39 187 -11 9 -75 12
-218 13 l-203 0 0 -25z"/>
</g>
</svg>
